<?xml version="1.0" encoding="utf-8"?>
<!-- Generator: Adobe Illustrator 23.0.2, SVG Export Plug-In . SVG Version: 6.00 Build 0)  -->
<svg version="1.1" id="Layer_1" xmlns="http://www.w3.org/2000/svg" xmlns:xlink="http://www.w3.org/1999/xlink" x="0px" y="0px"
	 viewBox="0 0 64 64" style="enable-background:new 0 0 64 64;" xml:space="preserve">
<style type="text/css">
	.st0{fill:#9E0059;}
</style>
<path class="st0" d="M30.6,64L0,33.4L31,2.5C32.4,1,33.7-0.2,35.5,0H64V29c0,1.7,0,1.7-5.7,7.4L30.6,64z M11.3,33.4l19.3,19.3
	c6.2-6.2,21.1-21.1,25.4-25.4V8H36.7C32.5,12.3,17.5,27.2,11.3,33.4z M51.1,13c-2-2-5.1-2-7.1,0c-2,2-2,5.1,0,7.1c2,2,5.1,2,7.1,0
	C53,18.1,53,14.9,51.1,13z"/>
</svg>
